<?xml version="1.0" encoding="iso-8859-1"?>
<!-- Generator: Adobe Illustrator 19.0.0, SVG Export Plug-In . SVG Version: 6.00 Build 0)  -->
<svg version="1.1" id="Capa_1" xmlns="http://www.w3.org/2000/svg" xmlns:xlink="http://www.w3.org/1999/xlink" x="0px" y="0px"
	 viewBox="0 0 512 512" style="enable-background:new 0 0 512 512;" xml:space="preserve">
<path style="fill:#303C42;" d="M434.25,359.51c-12.208-18.219-28.917-43.167-28.917-114.177v-32
	c0-67.512-45.066-124.63-106.667-143.043V64c0-23.531-19.146-42.667-42.667-42.667S213.333,40.469,213.333,64v6.29
	c-61.599,18.413-106.667,75.531-106.667,143.043v32c0,71.01-16.708,95.958-28.917,114.177C70.688,370.063,64,380.031,64,394.667
	c0,34.775,72.495,46.978,131.271,51.181c8.241,26.383,32.432,44.819,60.729,44.819s52.488-18.436,60.729-44.819
	C375.505,441.645,448,429.441,448,394.667C448,380.031,441.313,370.063,434.25,359.51z M277.333,65.704
	C270.346,64.698,263.262,64,256,64s-14.346,0.698-21.333,1.704V64c0-11.76,9.563-21.333,21.333-21.333
	c11.771,0,21.333,9.573,21.333,21.333V65.704z"/>
<path style="fill:#FFCA28;" d="M256,469.333c-15.944,0-29.947-8.799-37.221-22.147C233.893,447.824,247.018,448,256,448
	c8.983,0,22.107-0.176,37.223-0.814C285.948,460.534,271.944,469.333,256,469.333z"/>
<path style="opacity:0.1;enable-background:new    ;" d="M256,469.333c-15.944,0-29.947-8.799-37.221-22.147
	C233.893,447.824,247.018,448,256,448c8.983,0,22.107-0.176,37.223-0.814C285.948,460.534,271.944,469.333,256,469.333z"/>
<path style="fill:#FFCA28;" d="M256,426.667c-97.688,0-170.667-16.896-170.667-32c0-7.802,3.292-13.063,10.146-23.281
	C108.417,352.052,128,322.833,128,245.333v-32c0-70.583,57.417-128,128-128s128,57.417,128,128v32
	c0,77.5,19.583,106.719,32.521,126.052c6.854,10.219,10.146,15.479,10.146,23.281C426.667,409.771,353.688,426.667,256,426.667z"/>
<path style="opacity:0.2;fill:#FFFFFF;enable-background:new    ;" d="M128,213.333v32c0,77.5-19.583,106.719-32.521,126.052
	c-6.854,10.219-10.146,15.479-10.146,23.281c0,8.758,24.637,18.095,64.296,24.415c0.641-6.289,2.579-11.835,6.046-20.879
	C163.76,377.057,176,345.099,176,260.333v-35c0-77.201,35.885-140,80-140C185.417,85.333,128,142.75,128,213.333z"/>
<path style="opacity:0.1;enable-background:new    ;" d="M416.521,371.385C403.583,352.052,384,322.833,384,245.333v-32
	c0-70.583-57.417-128-128-128c44.115,0,80,62.799,80,140v35c0,84.766,12.24,116.724,20.326,137.87
	c3.466,9.044,5.405,14.59,6.046,20.879c39.659-6.32,64.296-15.658,64.296-24.415C426.667,386.865,423.375,381.604,416.521,371.385z"
	/>
<g>
	<path style="fill:#303C42;" d="M499.292,178.458c-1.875-5.604-7.875-8.604-13.5-6.74c-5.583,1.865-8.604,7.906-6.75,13.49
		c7.708,23.094,11.625,46.906,11.625,70.792c0,23.885-3.917,47.698-11.625,70.792c-1.854,5.583,1.167,11.625,6.75,13.49
		c1.125,0.375,2.25,0.552,3.375,0.552c4.458,0,8.625-2.823,10.125-7.292C507.729,308.281,512,282.188,512,256
		S507.729,203.719,499.292,178.458z"/>
	<path style="fill:#303C42;" d="M445.354,185.188c-5.583,1.865-8.604,7.906-6.75,13.49C444.833,217.406,448,236.688,448,256
		s-3.167,38.594-9.396,57.323c-1.854,5.583,1.167,11.625,6.75,13.49c1.125,0.365,2.25,0.542,3.375,0.542
		c4.479,0,8.625-2.823,10.125-7.302c6.958-20.896,10.479-42.448,10.479-64.052c0-21.604-3.521-43.156-10.479-64.052
		C456.979,186.344,450.979,183.396,445.354,185.188z"/>
	<path style="fill:#303C42;" d="M21.333,256c0-23.865,3.896-47.688,11.604-70.792c1.854-5.594-1.167-11.635-6.75-13.5
		c-5.583-1.792-11.625,1.167-13.5,6.75C4.271,203.75,0,229.844,0,256c0,26.188,4.271,52.281,12.708,77.542
		c1.5,4.469,5.667,7.292,10.125,7.292c1.125,0,2.25-0.177,3.375-0.552c5.583-1.865,8.604-7.906,6.75-13.49
		C25.25,303.698,21.333,279.885,21.333,256z"/>
	<path style="fill:#303C42;" d="M73.396,313.323C67.167,294.594,64,275.313,64,256s3.167-38.594,9.396-57.323
		c1.854-5.583-1.167-11.625-6.75-13.49c-5.646-1.802-11.625,1.156-13.5,6.76C46.188,212.844,42.667,234.396,42.667,256
		c0,21.604,3.521,43.156,10.479,64.052c1.5,4.479,5.646,7.302,10.125,7.302c1.125,0,2.25-0.177,3.375-0.542
		C72.229,324.948,75.25,318.906,73.396,313.323z"/>
</g>
<linearGradient id="SVGID_1_" gradientUnits="userSpaceOnUse" x1="-45.5324" y1="639.3619" x2="-24.0067" y2="629.3241" gradientTransform="matrix(21.3333 0 0 -21.3333 996.3334 13791.667)">
	<stop  offset="0" style="stop-color:#FFFFFF;stop-opacity:0.2"/>
	<stop  offset="1" style="stop-color:#FFFFFF;stop-opacity:0"/>
</linearGradient>
<path style="fill:url(#SVGID_1_);" d="M499.292,178.458c-1.875-5.604-7.875-8.604-13.5-6.74c-5.583,1.865-8.604,7.906-6.75,13.49
	c7.708,23.094,11.625,46.906,11.625,70.792c0,23.885-3.917,47.698-11.625,70.792c-1.854,5.583,1.167,11.625,6.75,13.49
	c1.125,0.375,2.25,0.552,3.375,0.552c4.458,0,8.625-2.823,10.125-7.292C507.729,308.281,512,282.188,512,256
	S507.729,203.719,499.292,178.458z M445.354,185.188c-5.583,1.865-8.604,7.906-6.75,13.49C444.833,217.406,448,236.688,448,256
	s-3.167,38.594-9.396,57.323c-1.854,5.583,1.167,11.625,6.75,13.49c1.125,0.365,2.25,0.542,3.375,0.542
	c4.479,0,8.625-2.823,10.125-7.302c6.958-20.896,10.479-42.448,10.479-64.052c0-21.604-3.521-43.156-10.479-64.052
	C456.979,186.344,450.979,183.396,445.354,185.188z M21.333,256c0-23.865,3.896-47.688,11.604-70.792
	c1.854-5.594-1.167-11.635-6.75-13.5c-5.583-1.792-11.625,1.167-13.5,6.75C4.271,203.75,0,229.844,0,256
	c0,26.188,4.271,52.281,12.708,77.542c1.5,4.469,5.667,7.292,10.125,7.292c1.125,0,2.25-0.177,3.375-0.552
	c5.583-1.865,8.604-7.906,6.75-13.49C25.25,303.698,21.333,279.885,21.333,256z M73.396,313.323C67.167,294.594,64,275.313,64,256
	s3.167-38.594,9.396-57.323c1.854-5.583-1.167-11.625-6.75-13.49c-5.646-1.802-11.625,1.156-13.5,6.76
	C46.188,212.844,42.667,234.396,42.667,256c0,21.604,3.521,43.156,10.479,64.052c1.5,4.479,5.646,7.302,10.125,7.302
	c1.125,0,2.25-0.177,3.375-0.542C72.229,324.948,75.25,318.906,73.396,313.323z M405.333,245.333v-32
	c0-67.512-45.066-124.63-106.667-143.043V64c0-23.531-19.146-42.667-42.667-42.667S213.333,40.469,213.333,64v6.29
	c-61.599,18.413-106.667,75.531-106.667,143.043v32c0,71.01-16.708,95.958-28.917,114.177C70.688,370.063,64,380.031,64,394.667
	c0,34.775,72.495,46.978,131.271,51.181c8.241,26.383,32.432,44.819,60.729,44.819s52.488-18.436,60.729-44.819
	C375.505,441.645,448,429.441,448,394.667c0-14.635-6.688-24.604-13.75-35.156C422.042,341.292,405.333,316.344,405.333,245.333z
	 M277.333,65.704C270.346,64.698,263.262,64,256,64s-14.346,0.698-21.333,1.704V64c0-11.76,9.563-21.333,21.333-21.333
	c11.771,0,21.333,9.573,21.333,21.333V65.704z"/>
<g>
</g>
<g>
</g>
<g>
</g>
<g>
</g>
<g>
</g>
<g>
</g>
<g>
</g>
<g>
</g>
<g>
</g>
<g>
</g>
<g>
</g>
<g>
</g>
<g>
</g>
<g>
</g>
<g>
</g>
</svg>
