<svg xmlns="http://www.w3.org/2000/svg" width="512" height="512" viewBox="0 0 49.652 49.652"><g fill="#FFF"><path d="M29.35 21.298c-2.125 0-3.074 1.168-3.605 1.988v-1.704h-4.002c.052 1.128 0 12.041 0 12.041h4.002v-6.727c0-.359.023-.72.131-.977.29-.72.948-1.465 2.054-1.465 1.448 0 2.027 1.104 2.027 2.724v6.442h4.003v-6.905c-.002-3.696-1.977-5.417-4.61-5.417zm-3.608 2.03h-.025c.008-.014.02-.027.025-.041v.041zM15.523 21.582h4.002v12.041h-4.002z"/><path d="M24.826 0C11.137 0 0 11.137 0 24.826c0 13.688 11.137 24.826 24.826 24.826 13.688 0 24.826-11.138 24.826-24.826C49.652 11.137 38.516 0 24.826 0zm13.165 36.055c0 1.056-.876 1.91-1.959 1.91H13.451c-1.08 0-1.957-.854-1.957-1.91V13.211c0-1.055.877-1.91 1.957-1.91h22.581c1.082 0 1.959.856 1.959 1.91v22.844z"/><path d="M17.551 15.777c-1.368 0-2.264.898-2.264 2.08 0 1.155.869 2.08 2.211 2.08h.026c1.396 0 2.265-.925 2.265-2.08-.027-1.181-.868-2.08-2.238-2.08z"/></g></svg>